<?xml version="1.0" encoding="iso-8859-1"?>
<!-- Generator: Adobe Illustrator 19.0.0, SVG Export Plug-In . SVG Version: 6.00 Build 0)  -->
<svg version="1.1" id="Capa_1" xmlns="http://www.w3.org/2000/svg" xmlns:xlink="http://www.w3.org/1999/xlink" x="0px" y="0px"
	 viewBox="0 0 512.001 512.001" style="enable-background:new 0 0 512.001 512.001;" xml:space="preserve">
<path style="fill:#FFDC40;" d="M465.757,38.758C436.598,13.765,397.974,0,357,0s-79.598,13.765-108.757,38.758
	C218.423,64.319,202,98.498,202,135s16.423,70.681,46.243,96.242c5.344,4.58,11.008,8.78,16.944,12.59
	c-10.961,16.515-23.775,31.695-38.187,45.198c31.437-2.6,61.245-10.931,88.395-23.924C328.78,268.33,342.747,270,357,270
	c40.974,0,79.598-13.765,108.757-38.758C495.577,205.681,512,171.502,512,135S495.577,64.319,465.757,38.758z"/>
<path style="fill:#FFAB15;" d="M465.757,38.758C436.598,13.765,397.974,0,357,0v270c40.974,0,79.598-13.765,108.757-38.758
	C495.577,205.681,512,171.502,512,135S495.577,64.319,465.757,38.758z"/>
<path style="fill:#7D8AFF;" d="M96.541,415.459c78.719,78.719,168.059,117.008,199.547,85.52l38.009-38.009
	c7.872-7.872,7.872-20.635,0-28.507l-47.511-47.511c-7.872-7.872-20.635-7.872-28.507,0l-28.507,28.507
	c-58.375-27.651-105.38-74.656-133.031-133.031l28.507-28.507c7.872-7.872,7.872-20.635,0-28.507l-47.511-47.511
	c-7.872-7.872-20.635-7.872-28.507,0l-38.009,38.009C-20.467,247.4,17.822,336.74,96.541,415.459z"/>
<g>
	<circle style="fill:#FFFFFF;" cx="357" cy="135" r="20"/>
	<circle style="fill:#FFFFFF;" cx="287" cy="135" r="20"/>
</g>
<circle style="fill:#DCF4FF;" cx="427" cy="135" r="20"/>
<path style="fill:#6E76E5;" d="M334.096,434.464l-47.511-47.511c-7.872-7.872-20.635-7.872-28.507,0l-28.507,28.507
	c-29.188-13.826-55.532-32.49-78.037-54.994L96.54,415.46c78.719,78.719,168.059,117.008,199.547,85.52l38.009-38.009
	C341.968,455.099,341.968,442.336,334.096,434.464z"/>
<path style="fill:#DCF4FF;" d="M357,115v40c11.046,0,20-8.954,20-20S368.046,115,357,115z"/>
<g>
</g>
<g>
</g>
<g>
</g>
<g>
</g>
<g>
</g>
<g>
</g>
<g>
</g>
<g>
</g>
<g>
</g>
<g>
</g>
<g>
</g>
<g>
</g>
<g>
</g>
<g>
</g>
<g>
</g>
</svg>
